<svg width="42" height="42" viewBox="0 0 42 42" fill="none" xmlns="http://www.w3.org/2000/svg">
  <path d="M32.9962 42C32.7378 42.0009 32.4832 41.9354 32.2547 41.8091L21.0001 35.6099L9.74336 41.8091C9.48101 41.9529 9.18554 42.017 8.89026 41.9943C8.59498 41.9715 8.31165 41.8628 8.0722 41.6804C7.83275 41.498 7.64671 41.2492 7.53506 40.962C7.42341 40.6748 7.3906 40.3606 7.44032 40.0549L9.59081 26.9263L0.480349 17.6279C0.26789 17.4112 0.117579 17.1365 0.0464192 16.835C-0.0247403 16.5334 -0.0139078 16.217 0.0776914 15.9215C0.169291 15.6261 0.338 15.3634 0.564735 15.1632C0.79147 14.9629 1.06718 14.8331 1.36067 14.7885L13.9469 12.8734L19.5752 0.927548C19.7065 0.649117 19.9095 0.414694 20.1613 0.25078C20.4131 0.0868669 20.7036 0 21.0001 0C21.2965 0 21.5871 0.0868669 21.8389 0.25078C22.0907 0.414694 22.2937 0.649117 22.4249 0.927548L28.0533 12.8734L40.6384 14.7885C40.932 14.833 41.2078 14.9626 41.4347 15.1628C41.6616 15.363 41.8304 15.6256 41.9221 15.9211C42.0138 16.2166 42.0248 16.5331 41.9537 16.8347C41.8826 17.1364 41.7323 17.4111 41.5198 17.6279L32.4093 26.9263L34.5598 40.0549C34.5988 40.2937 34.5876 40.5386 34.5269 40.7723C34.4662 41.0061 34.3575 41.2232 34.2084 41.4085C34.0593 41.5937 33.8734 41.7426 33.6637 41.8448C33.4539 41.9469 33.2275 41.9999 32.9962 42ZM5.0038 17.598L12.4034 25.1531C12.5874 25.341 12.7252 25.5728 12.8049 25.8287C12.8846 26.0846 12.9038 26.3569 12.861 26.6222L11.1142 37.2898L20.2585 32.2567C20.4871 32.1304 20.7416 32.0644 21.0001 32.0644C21.2585 32.0644 21.513 32.1304 21.7416 32.2567L30.8881 37.2931L29.1391 26.6222C29.0956 26.3564 29.1145 26.0835 29.194 25.827C29.2735 25.5705 29.4114 25.3381 29.5957 25.1498L36.9963 17.598L26.7704 16.0445C26.5156 16.0057 26.2736 15.9027 26.0652 15.7442C25.8569 15.5857 25.6884 15.3765 25.5744 15.1347L21.0001 5.42914L16.4268 15.1347C16.3127 15.3766 16.1441 15.5859 15.9355 15.7444C15.727 15.9029 15.4848 16.0059 15.2298 16.0445L5.0038 17.598Z" fill="url(#paint0_linear_2063_1382)" />
  <defs>
    <linearGradient id="paint0_linear_2063_1382" x1="0.980769" y1="21.3818" x2="40.8462" y2="21.3818" gradientUnits="userSpaceOnUse">
      <stop stop-color="#F4BE00" />
      <stop offset="0.365385" stop-color="#F19023" />
      <stop offset="1" stop-color="#EE6D00" />
    </linearGradient>
  </defs>
</svg>