<svg width="42" height="42" viewBox="0 0 42 42" fill="none" xmlns="http://www.w3.org/2000/svg">
  <path d="M9.90664 29.8495C8.01855 29.8485 6.18923 29.1928 4.73037 27.9943C3.2715 26.7957 2.27335 25.1284 1.90598 23.2764C1.53862 21.4244 1.82476 19.5023 2.71567 17.8376C3.60657 16.1729 5.04711 14.8686 6.79184 14.147C8.53658 13.4253 10.4776 13.331 12.2841 13.8799C14.0906 14.4289 15.6509 15.5873 16.699 17.1577C17.7472 18.7281 18.2185 20.6134 18.0325 22.4923C17.8465 24.3712 17.0149 26.1275 15.6791 27.4619C14.9217 28.2205 14.0218 28.822 13.0311 29.2317C12.0405 29.6415 10.9787 29.8514 9.90664 29.8495ZM9.90664 16.5034C8.70699 16.5049 7.54495 16.9222 6.61846 17.6842C5.69197 18.4463 5.05834 19.506 4.8255 20.6829C4.59266 21.8597 4.77501 23.0809 5.3415 24.1383C5.90798 25.1958 6.82356 26.0242 7.93227 26.4823C9.04098 26.9405 10.2742 27.0001 11.422 26.651C12.5697 26.302 13.5609 25.5658 14.2268 24.5679C14.8926 23.57 15.1919 22.3721 15.0737 21.1783C14.9554 19.9845 14.427 18.8686 13.5783 18.0207C13.0965 17.5383 12.5241 17.1559 11.8939 16.8955C11.2638 16.6351 10.5884 16.5019 9.90664 16.5034Z" fill="url(#paint0_linear_2063_1542)" />
  <path d="M30.3347 18.0801C28.9917 18.0806 27.6694 17.7499 26.4848 17.1172C25.3003 16.4845 24.29 15.5694 23.5437 14.453C22.7973 13.3365 22.3378 12.0532 22.206 10.7168C22.0741 9.3803 22.2739 8.03195 22.7877 6.79118C23.3015 5.5504 24.1134 4.45552 25.1515 3.60353C26.1896 2.75154 27.4218 2.16876 28.739 1.90682C30.0561 1.64488 31.4176 1.71187 32.7027 2.10185C33.9877 2.49184 35.1568 3.19277 36.1062 4.14256C37.2476 5.2844 38.0249 6.73899 38.3398 8.32248C38.6547 9.90598 38.4931 11.5473 37.8754 13.039C37.2577 14.5306 36.2117 15.8057 34.8695 16.703C33.5273 17.6003 31.9492 18.0795 30.3347 18.0801ZM30.3347 4.72805C29.1346 4.72885 27.9718 5.14571 27.0445 5.90762C26.1173 6.66953 25.4828 7.72936 25.2493 8.90656C25.0158 10.0838 25.1976 11.3055 25.7638 12.3637C26.33 13.4219 27.2456 14.251 28.3546 14.7099C29.4635 15.1688 30.6972 15.229 31.8456 14.8802C32.994 14.5315 33.9859 13.7955 34.6525 12.7974C35.319 11.7994 35.6189 10.6012 35.5011 9.40681C35.3833 8.21247 34.8551 7.09591 34.0064 6.24734C33.5254 5.76374 32.9531 5.38044 32.3228 5.11964C31.6926 4.85884 31.0168 4.72574 30.3347 4.72805Z" fill="url(#paint1_linear_2063_1542)" />
  <path d="M30.3355 41.627C28.7205 41.627 27.1419 41.1481 25.7991 40.2509C24.4563 39.3536 23.4098 38.0784 22.7918 36.5864C22.1739 35.0943 22.0122 33.4525 22.3274 31.8687C22.6425 30.2848 23.4203 28.8299 24.5623 27.688C25.7043 26.5462 27.1592 25.7686 28.7432 25.4536C30.3271 25.1387 31.9688 25.3005 33.4608 25.9187C34.9528 26.5368 36.2279 27.5835 37.125 28.9264C38.022 30.2693 38.5007 31.848 38.5005 33.4629C38.4979 35.6275 37.6368 37.7027 36.1061 39.2333C34.5754 40.7638 32.5001 41.6246 30.3355 41.627ZM30.3355 28.2749C29.3094 28.2749 28.3063 28.5792 27.4532 29.1493C26.6 29.7193 25.935 30.5296 25.5424 31.4776C25.1497 32.4256 25.047 33.4687 25.2472 34.4751C25.4473 35.4814 25.9414 36.4059 26.667 37.1314C27.3926 37.857 28.317 38.3511 29.3233 38.5513C30.3297 38.7514 31.3729 38.6487 32.3208 38.256C33.2688 37.8634 34.0791 37.1984 34.6492 36.3452C35.2192 35.4921 35.5235 34.489 35.5235 33.4629C35.5222 32.0874 34.9752 30.7686 34.0025 29.7959C33.0298 28.8233 31.711 28.2762 30.3355 28.2749Z" fill="url(#paint2_linear_2063_1542)" />
  <path d="M15.6926 19.8443C15.3645 19.8448 15.0455 19.737 14.785 19.5376C14.5245 19.3381 14.3372 19.0582 14.2522 18.7413C14.1672 18.4245 14.1893 18.0884 14.315 17.7854C14.4407 17.4824 14.663 17.2293 14.9473 17.0657L23.8041 11.961C24.1462 11.7636 24.5528 11.7102 24.9343 11.8126C25.3158 11.915 25.641 12.1647 25.8384 12.5068C26.0358 12.849 26.0892 13.2555 25.9868 13.637C25.8845 14.0185 25.6347 14.3437 25.2926 14.5411L16.4359 19.6458C16.2098 19.7759 15.9535 19.8444 15.6926 19.8443Z" fill="url(#paint3_linear_2063_1542)" />
  <path d="M24.5475 31.6177C24.287 31.6176 24.031 31.5492 23.8052 31.4192L14.9475 26.3146C14.6053 26.1172 14.3556 25.792 14.2533 25.4104C14.1509 25.0289 14.2043 24.6224 14.4017 24.2803C14.5991 23.9381 14.9243 23.6884 15.3058 23.586C15.6873 23.4837 16.0939 23.5371 16.436 23.7345L25.2927 28.8391C25.577 29.0027 25.7992 29.2557 25.925 29.5586C26.0507 29.8615 26.0728 30.1975 25.988 30.5143C25.9031 30.8311 25.716 31.111 25.4557 31.3106C25.1954 31.5101 24.8765 31.6181 24.5485 31.6177H24.5475Z" fill="url(#paint4_linear_2063_1542)" />
  <defs>
    <linearGradient id="paint0_linear_2063_1542" x1="2.13115" y1="21.8368" x2="17.6238" y2="21.8368" gradientUnits="userSpaceOnUse">
      <stop stop-color="#F4BE00" />
      <stop offset="0.365385" stop-color="#F19023" />
      <stop offset="1" stop-color="#EE6D00" />
    </linearGradient>
    <linearGradient id="paint1_linear_2063_1542" x1="22.5478" y1="10.0635" x2="38.048" y2="10.0635" gradientUnits="userSpaceOnUse">
      <stop stop-color="#F4BE00" />
      <stop offset="0.365385" stop-color="#F19023" />
      <stop offset="1" stop-color="#EE6D00" />
    </linearGradient>
    <linearGradient id="paint2_linear_2063_1542" x1="22.5517" y1="33.6104" x2="38.0519" y2="33.6104" gradientUnits="userSpaceOnUse">
      <stop stop-color="#F4BE00" />
      <stop offset="0.365385" stop-color="#F19023" />
      <stop offset="1" stop-color="#EE6D00" />
    </linearGradient>
    <linearGradient id="paint3_linear_2063_1542" x1="14.4778" y1="15.8765" x2="25.7125" y2="15.8765" gradientUnits="userSpaceOnUse">
      <stop stop-color="#F4BE00" />
      <stop offset="0.365385" stop-color="#F19023" />
      <stop offset="1" stop-color="#EE6D00" />
    </linearGradient>
    <linearGradient id="paint4_linear_2063_1542" x1="14.4788" y1="27.6499" x2="25.7135" y2="27.6499" gradientUnits="userSpaceOnUse">
      <stop stop-color="#F4BE00" />
      <stop offset="0.365385" stop-color="#F19023" />
      <stop offset="1" stop-color="#EE6D00" />
    </linearGradient>
  </defs>
</svg>