<svg width="1920" height="518" viewBox="0 0 1920 518" fill="none" xmlns="http://www.w3.org/2000/svg">
  <path d="M1920.59 436.639C1920.59 558.75 1490.51 436.639 959.978 436.639C429.446 436.639 -0.634766 558.75 -0.634766 436.639C-0.634766 314.528 429.446 215.537 959.978 215.537C1490.51 215.537 1920.59 314.528 1920.59 436.639Z" fill="url(#paint0_linear_331_11585)" />
  <g filter="url(#filter0_f_331_11585)">
    <path d="M1979 360.998C1979 498.683 1513.5 275.242 951 275.242C388.498 275.242 -58 498.683 -58 360.998C-58 223.314 397.998 111.699 960.5 111.699C1523 111.699 1979 223.314 1979 360.998Z" fill="url(#paint1_linear_331_11585)" />
    <path d="M960.5 112.699C1241.69 112.699 1496.24 140.598 1680.45 185.688C1772.56 208.235 1847.04 235.068 1898.46 264.825C1949.95 294.625 1978 327.159 1978 360.998C1978 369.46 1976.21 376.47 1972.78 382.212C1969.34 387.952 1964.22 392.491 1957.44 395.954C1943.85 402.902 1923.68 405.476 1897.51 404.685C1845.18 403.102 1769.52 388.104 1676.14 368.772C1489.47 330.126 1232.37 274.242 951 274.242C669.628 274.242 417.279 330.126 235.354 368.773C144.35 388.106 71.0616 403.103 20.5234 404.686C-4.75895 405.477 -24.1786 402.901 -37.2471 395.961C-43.7596 392.502 -48.6809 387.967 -51.9814 382.227C-55.2843 376.482 -57 369.467 -57 360.998C-56.9998 327.159 -28.9539 294.625 22.54 264.825C73.9611 235.068 148.435 208.235 240.55 185.688C424.764 140.598 679.305 112.699 960.5 112.699Z" stroke="#FFA143" stroke-width="2" />
  </g>
  <defs>
    <filter id="filter0_f_331_11585" x="-169.7" y="-0.000778198" width="2260.4" height="517.523" filterUnits="userSpaceOnUse" color-interpolation-filters="sRGB">
      <feFlood flood-opacity="0" result="BackgroundImageFix" />
      <feBlend mode="normal" in="SourceGraphic" in2="BackgroundImageFix" result="shape" />
      <feGaussianBlur stdDeviation="55.85" result="effect1_foregroundBlur_331_11585" />
    </filter>
    <linearGradient id="paint0_linear_331_11585" x1="981.492" y1="215.537" x2="977.435" y2="564.057" gradientUnits="userSpaceOnUse">
      <stop stop-color="#FFA143" stop-opacity="0.3" />
      <stop offset="0.475962" stop-opacity="0" />
    </linearGradient>
    <linearGradient id="paint1_linear_331_11585" x1="983.31" y1="111.699" x2="978.445" y2="504.66" gradientUnits="userSpaceOnUse">
      <stop stop-color="#FFA143" stop-opacity="0.5" />
      <stop offset="1" stop-color="#737373" stop-opacity="0" />
    </linearGradient>
  </defs>
</svg>