<svg width="42" height="42" viewBox="0 0 42 42" fill="none" xmlns="http://www.w3.org/2000/svg">
  <path d="M17.6197 15.7892C17.6197 14.1072 19.8902 13.82 21.8597 13.82C23.521 13.82 25.7272 14.5751 27.6926 15.5877C28.0151 15.7538 28.4098 15.5454 28.4421 15.1841L28.7612 11.6252C28.7781 11.4368 28.6887 11.254 28.5216 11.1654C27.4416 10.5929 25.4194 9.97233 23.2989 9.76199C23.0119 9.73352 22.7995 9.47642 22.8362 9.19032L23.3017 5.56366C23.3401 5.2647 23.1072 5 22.8058 5H19.891C19.5895 5 19.3566 5.26476 19.395 5.56375L19.8636 9.20918C19.8995 9.48817 19.6975 9.74078 19.419 9.78049C14.5927 10.4687 13 13.6241 13 16.2816C13 23.2145 24.9258 21.7391 24.9258 26.0039C24.9258 27.6053 23.5261 28.1782 21.0643 28.1782C18.3152 28.1782 16.1322 27.3131 14.7302 26.2723C14.394 26.0226 13.8707 26.2084 13.8193 26.6241L13.341 30.4927C13.3174 30.6834 13.4039 30.8721 13.572 30.9652C14.7732 31.6312 16.8774 32.2114 19.3904 32.41C19.6807 32.4329 19.8963 32.6927 19.8578 32.9814L19.398 36.434C19.358 36.7337 19.5912 37 19.8936 37H22.8039C23.106 37 23.3391 36.7342 23.2996 36.4347L22.8362 32.9191C22.7992 32.638 23.0042 32.3832 23.2854 32.3475C28.9644 31.6276 30 28.2338 30 25.9637C30.0001 17.7182 17.6197 19.7683 17.6197 15.7892Z" fill="url(#paint0_linear_2063_1314)" />
  <defs>
    <linearGradient id="paint0_linear_2063_1314" x1="13.397" y1="21.2909" x2="29.533" y2="21.2909" gradientUnits="userSpaceOnUse">
      <stop stop-color="#F4BE00" />
      <stop offset="0.365385" stop-color="#F19023" />
      <stop offset="1" stop-color="#EE6D00" />
    </linearGradient>
  </defs>
</svg>