<svg width="42" height="42" viewBox="0 0 42 42" fill="none" xmlns="http://www.w3.org/2000/svg">
  <path d="M17.5 22.75C18.2515 23.7547 19.2104 24.5861 20.3115 25.1876C21.4126 25.7892 22.6301 26.147 23.8816 26.2366C25.1331 26.3262 26.3893 26.1456 27.5649 25.7071C28.7404 25.2686 29.808 24.5824 30.695 23.695L35.945 18.445C37.5389 16.7947 38.4208 14.5845 38.4009 12.2902C38.381 9.99602 37.4607 7.80141 35.8384 6.17909C34.2161 4.55677 32.0215 3.63654 29.7273 3.6166C27.433 3.59667 25.2228 4.47862 23.5725 6.0725L20.5625 9.065" stroke="url(#paint0_linear_2004_3762)" stroke-width="2.5" stroke-linecap="round" stroke-linejoin="round" />
  <path d="M24.4999 19.25C23.7483 18.2453 22.7895 17.4139 21.6884 16.8124C20.5873 16.2108 19.3697 15.853 18.1182 15.7634C16.8667 15.6738 15.6106 15.8544 14.435 16.2929C13.2594 16.7314 12.1919 17.4176 11.3049 18.305L6.05486 23.555C4.46098 25.2053 3.57903 27.4155 3.59896 29.7098C3.6189 32.004 4.53913 34.1986 6.16145 35.8209C7.78377 37.4432 9.97838 38.3635 12.2726 38.3834C14.5668 38.4033 16.7771 37.5214 18.4274 35.9275L21.4199 32.935" stroke="url(#paint1_linear_2004_3762)" stroke-width="2.5" stroke-linecap="round" stroke-linejoin="round" />
  <defs>
    <linearGradient id="paint0_linear_2004_3762" x1="17.9881" y1="15.1435" x2="37.827" y2="15.1435" gradientUnits="userSpaceOnUse">
      <stop stop-color="#F4BE00" />
      <stop offset="0.365385" stop-color="#F19023" />
      <stop offset="1" stop-color="#EE6D00" />
    </linearGradient>
    <linearGradient id="paint1_linear_2004_3762" x1="4.08671" y1="27.2682" x2="23.9257" y2="27.2682" gradientUnits="userSpaceOnUse">
      <stop stop-color="#F4BE00" />
      <stop offset="0.365385" stop-color="#F19023" />
      <stop offset="1" stop-color="#EE6D00" />
    </linearGradient>
  </defs>
</svg>
