<svg width="42" height="42" viewBox="0 0 42 42" fill="none" xmlns="http://www.w3.org/2000/svg">
  <path d="M26.25 24.5C26.6 22.75 27.475 21.525 28.875 20.125C30.625 18.55 31.5 16.275 31.5 14C31.5 11.2152 30.3938 8.54451 28.4246 6.57538C26.4555 4.60625 23.7848 3.5 21 3.5C18.2152 3.5 15.5445 4.60625 13.5754 6.57538C11.6062 8.54451 10.5 11.2152 10.5 14C10.5 15.75 10.85 17.85 13.125 20.125C14.35 21.35 15.4 22.75 15.75 24.5" stroke="url(#paint0_linear_2004_3741)" stroke-width="2.5" stroke-linecap="round" stroke-linejoin="round" />
  <path d="M15.75 31.5H26.25" stroke="url(#paint1_linear_2004_3741)" stroke-width="2.5" stroke-linecap="round" stroke-linejoin="round" />
  <path d="M17.5 38.5H24.5" stroke="url(#paint2_linear_2004_3741)" stroke-width="2.5" stroke-linecap="round" stroke-linejoin="round" />
  <defs>
    <linearGradient id="paint0_linear_2004_3741" x1="10.9904" y1="14.1909" x2="30.9231" y2="14.1909" gradientUnits="userSpaceOnUse">
      <stop stop-color="#F4BE00" />
      <stop offset="0.365385" stop-color="#F19023" />
      <stop offset="1" stop-color="#EE6D00" />
    </linearGradient>
    <linearGradient id="paint1_linear_2004_3741" x1="15.9952" y1="32.0091" x2="25.9615" y2="32.0091" gradientUnits="userSpaceOnUse">
      <stop stop-color="#F4BE00" />
      <stop offset="0.365385" stop-color="#F19023" />
      <stop offset="1" stop-color="#EE6D00" />
    </linearGradient>
    <linearGradient id="paint2_linear_2004_3741" x1="17.6635" y1="39.0091" x2="24.3077" y2="39.0091" gradientUnits="userSpaceOnUse">
      <stop stop-color="#F4BE00" />
      <stop offset="0.365385" stop-color="#F19023" />
      <stop offset="1" stop-color="#EE6D00" />
    </linearGradient>
  </defs>
</svg>
