<svg width="178" height="34" viewBox="0 0 178 34" fill="none" xmlns="http://www.w3.org/2000/svg">
<g filter="url(#filter0_d_298_998)">
<path d="M159 26L158 25V22V21H168V19V17L164 15H158V7L161 3H173L174 4V7L173 8H163V10V12H173.011L174 13V22L169 26H159Z" fill="white"/>
<path d="M22 3V26H27V11L32.7997 16L38 11V26H43V3H38L32.5 9L27 3H22Z" fill="white"/>
<path d="M117 21H107V0H101L100.883 26H116L117 24V21Z" fill="white"/>
</g>
<path d="M99 7.00195V13L96 16V18L99 21V26.002H94V22L91.457 19.9062H87.0781L87 26.002H82V3.00195H95L99 7.00195ZM93.252 8.5L92.4287 8.50098V8.5H86.7529V15.5H91.0508L91.1953 15.3652L93.5947 13.1152L93.7529 12.9668V8.49902L93.252 8.5Z" fill="white"/>
<path d="M62 7.00098V12L59.5 13.501L62 16.001V23.001L58 25.999L45 26.001V3.00098H58L62 7.00098ZM79 8H70V12H76L77 13V16.001L76 17H70V21H79V26L65 26.001V3H79V8ZM50 16.8477V21.5H56.7207L56.8682 21.3438L57.3633 20.8223L57.5 20.6777V17.6699L57.3633 17.5254L56.8682 17.0039L56.7207 16.8477H50ZM50 8.5V12.5H55.1133L55.2158 12.4512L56.6895 11.7471L56.9736 11.6113V9.23535L56.6592 9.10938L55.2207 8.53516L55.1318 8.5H50Z" fill="white"/>
<path d="M153 3L156 6V11.5L153.5 13.5L156 15.5V23.5L153 26H139V3H153ZM144.5 16.8477V21.5H150.771L150.92 21.3291L151.376 20.8076L151.5 20.666V17.6816L151.376 17.54L150.92 17.0186L150.771 16.8477H144.5ZM144.5 8.5V12.5H149.311L149.421 12.4414L150.749 11.7373L151.015 11.5967V9.24512L150.713 9.11523L149.385 8.54102L149.29 8.5H144.5Z" fill="white"/>
<path d="M19 0V26H14V18H6V26H0V7L7 0H19ZM8.79297 4.5L5.5 7.79297V12.5H14V4.5H8.79297Z" fill="white"/>
<path d="M136 3V26H131V19H125V26H120V9L125.931 3H136ZM127.438 8.5L127.29 8.65625L125.137 10.9287L125 11.0732V15H131V8.5H127.438Z" fill="white"/>
<defs>
<filter id="filter0_d_298_998" x="18" y="0" width="160" height="34" filterUnits="userSpaceOnUse" color-interpolation-filters="sRGB">
<feFlood flood-opacity="0" result="BackgroundImageFix"/>
<feColorMatrix in="SourceAlpha" type="matrix" values="0 0 0 0 0 0 0 0 0 0 0 0 0 0 0 0 0 0 127 0" result="hardAlpha"/>
<feOffset dy="4"/>
<feGaussianBlur stdDeviation="2"/>
<feComposite in2="hardAlpha" operator="out"/>
<feColorMatrix type="matrix" values="0 0 0 0 0 0 0 0 0 0 0 0 0 0 0 0 0 0 0.25 0"/>
<feBlend mode="normal" in2="BackgroundImageFix" result="effect1_dropShadow_298_998"/>
<feBlend mode="normal" in="SourceGraphic" in2="effect1_dropShadow_298_998" result="shape"/>
</filter>
</defs>
</svg>
